# xmcd CD database file
#
# Track frame offsets:
#	150
#	16317
#	33870
#	52586
#	82253
#	103640
#	120437
#	147852
#	168047
#	200515
#
# Disc length: 3272 seconds
#
# Revision: 1
# Processed by: cddbd v1.5.1PL2 Copyright (c) Steve Scherf et al.
# Submitted via: CDex 1.51
#
DISCID=730cc60a
DTITLE=Gary Delz Power Trio - Live at the Texas Music Cafe
DYEAR=1999
DGENRE=Blues
TTITLE0=C Butt Rock
TTITLE1=In The Open
TTITLE2=Texas Blues Boogie
TTITLE3=Big Legged Woman
TTITLE4=Stranger
TTITLE5=Susie Cool
TTITLE6=Weepin' and Bendin'
TTITLE7=Reap What You Sow
TTITLE8=Flight of the Colorado
TTITLE9=The Voodoo, Hoodoo, Of Course Yoo Doo Medley
EXTD=YEAR: 1999
EXTT0=
EXTT1=
EXTT2=
EXTT3=
EXTT4=
EXTT5=
EXTT6=
EXTT7=
EXTT8=
EXTT9=
PLAYORDER=
